<svg xmlns="http://www.w3.org/2000/svg" xmlns:xlink="http://www.w3.org/1999/xlink" viewBox="-1 -1 2 2">
<defs>
<g id="lobe">
<line x1="0.0" y1="0.0" x2="0.0" y2="-0.782753596351473" style="stroke:blue;stroke-width:0.038818454593558094"/>
<line x1="0.0" y1="-0.32018228655178055" x2="0.14114793433861678" y2="-0.5646576802096607" style="stroke:blue;stroke-width:0.04689068524553494"/>
<line x1="0.08979797488251294" y1="-0.4757169414650869" x2="0.08979797488251294" y2="-0.42002449921762813" style="stroke:blue;stroke-width:0.0786583888236627"/>
<line x1="0.08979797488251294" y1="-0.4757169414650869" x2="0.04156690509741592" y2="-0.44787072034135755" style="stroke:blue;stroke-width:0.0786583888236627"/>
<line x1="0.0" y1="-0.29664869928810417" x2="0.15581483891605735" y2="-0.5665279168638759" style="stroke:blue;stroke-width:0.05907707294421164"/>
<line x1="0.08640017078072958" y1="-0.4462981848629558" x2="0.08640017078072959" y2="-0.3812727257828982" style="stroke:blue;stroke-width:0.11418613591920658"/>
<line x1="0.099794986780401" y1="-0.46949868673242323" x2="0.09979498678040101" y2="-0.3754551323037979" style="stroke:blue;stroke-width:0.09655918221437956"/>
<line x1="0.03585467875500957" y1="-0.3587508245808412" x2="0.03585467875500959" y2="-0.21641268246401738" style="stroke:blue;stroke-width:0.10937497320101139"/>
<line x1="0.08640017078072958" y1="-0.4462981848629558" x2="0.030086471324654203" y2="-0.41378545532292704" style="stroke:blue;stroke-width:0.11418613591920658"/>
<line x1="0.099794986780401" y1="-0.46949868673242323" x2="0.018350879583026933" y2="-0.4224769095181106" style="stroke:blue;stroke-width:0.09655918221437956"/>
<line x1="0.03585467875500957" y1="-0.3587508245808412" x2="-0.08741376824563958" y2="-0.2875817535224293" style="stroke:blue;stroke-width:0.10937497320101139"/>
<line x1="0.0" y1="-0.5900697974525918" x2="0.15671284175291555" y2="-0.8615044015671429" style="stroke:blue;stroke-width:0.038487470559213956"/>
<line x1="0.052147663218974884" y1="-0.6803921996438471" x2="0.1365445293469317" y2="-0.7291187530215838" style="stroke:blue;stroke-width:0.07180553527144316"/>
<line x1="0.07147489790885811" y1="-0.7138679520965325" x2="0.18832680930543533" y2="-0.7813324345966687" style="stroke:blue;stroke-width:0.03795058992927416"/>
<line x1="0.12262006299821841" y1="-0.8024539765928027" x2="0.23407883274838137" y2="-0.8668047273116039" style="stroke:blue;stroke-width:0.02849186977920787"/>
<line x1="0.052147663218974884" y1="-0.6803921996438471" x2="0.052147663218974884" y2="-0.7778453063993205" style="stroke:blue;stroke-width:0.07180553527144316"/>
<line x1="0.07147489790885811" y1="-0.7138679520965325" x2="0.07147489790885811" y2="-0.8487969170968048" style="stroke:blue;stroke-width:0.03795058992927416"/>
<line x1="0.12262006299821841" y1="-0.8024539765928027" x2="0.12262006299821841" y2="-0.9311554780304049" style="stroke:blue;stroke-width:0.02849186977920787"/>
<line x1="0.0" y1="-0.32018228655178055" x2="-0.14114793433861678" y2="-0.5646576802096607" style="stroke:blue;stroke-width:0.04689068524553494"/>
<line x1="-0.08979797488251294" y1="-0.4757169414650869" x2="-0.04156690509741592" y2="-0.44787072034135755" style="stroke:blue;stroke-width:0.0786583888236627"/>
<line x1="-0.08979797488251294" y1="-0.4757169414650869" x2="-0.08979797488251294" y2="-0.42002449921762813" style="stroke:blue;stroke-width:0.0786583888236627"/>
<line x1="0.0" y1="-0.29664869928810417" x2="-0.15581483891605735" y2="-0.5665279168638759" style="stroke:blue;stroke-width:0.05907707294421164"/>
<line x1="-0.08640017078072958" y1="-0.4462981848629558" x2="-0.030086471324654203" y2="-0.41378545532292704" style="stroke:blue;stroke-width:0.11418613591920658"/>
<line x1="-0.099794986780401" y1="-0.46949868673242323" x2="-0.018350879583026933" y2="-0.4224769095181106" style="stroke:blue;stroke-width:0.09655918221437956"/>
<line x1="-0.03585467875500957" y1="-0.3587508245808412" x2="0.08741376824563958" y2="-0.2875817535224293" style="stroke:blue;stroke-width:0.10937497320101139"/>
<line x1="-0.08640017078072958" y1="-0.4462981848629558" x2="-0.08640017078072959" y2="-0.3812727257828982" style="stroke:blue;stroke-width:0.11418613591920658"/>
<line x1="-0.099794986780401" y1="-0.46949868673242323" x2="-0.09979498678040101" y2="-0.3754551323037979" style="stroke:blue;stroke-width:0.09655918221437956"/>
<line x1="-0.03585467875500957" y1="-0.3587508245808412" x2="-0.03585467875500959" y2="-0.21641268246401738" style="stroke:blue;stroke-width:0.10937497320101139"/>
<line x1="0.0" y1="-0.5900697974525918" x2="-0.15671284175291555" y2="-0.8615044015671429" style="stroke:blue;stroke-width:0.038487470559213956"/>
<line x1="-0.052147663218974884" y1="-0.6803921996438471" x2="-0.052147663218974884" y2="-0.7778453063993205" style="stroke:blue;stroke-width:0.07180553527144316"/>
<line x1="-0.07147489790885811" y1="-0.7138679520965325" x2="-0.07147489790885811" y2="-0.8487969170968048" style="stroke:blue;stroke-width:0.03795058992927416"/>
<line x1="-0.12262006299821841" y1="-0.8024539765928027" x2="-0.12262006299821841" y2="-0.9311554780304049" style="stroke:blue;stroke-width:0.02849186977920787"/>
<line x1="-0.052147663218974884" y1="-0.6803921996438471" x2="-0.1365445293469317" y2="-0.7291187530215838" style="stroke:blue;stroke-width:0.07180553527144316"/>
<line x1="-0.07147489790885811" y1="-0.7138679520965325" x2="-0.18832680930543533" y2="-0.7813324345966687" style="stroke:blue;stroke-width:0.03795058992927416"/>
<line x1="-0.12262006299821841" y1="-0.8024539765928027" x2="-0.23407883274838137" y2="-0.8668047273116039" style="stroke:blue;stroke-width:0.02849186977920787"/>

</g>
</defs>
<use href="#lobe" transform="rotate(0)"/>
<use href="#lobe" transform="rotate(60)"/>
<use href="#lobe" transform="rotate(120)"/>
<use href="#lobe" transform="rotate(180)"/>
<use href="#lobe" transform="rotate(240)"/>
<use href="#lobe" transform="rotate(300)"/>
</svg>
